<svg width="8" height="6" viewBox="0 0 8 6" fill="none" xmlns="http://www.w3.org/2000/svg">
<path d="M6.52475 1.09272L4.3166 3.30088C4.23199 3.38548 4.11954 3.43206 3.99996 3.43206C3.8804 3.43206 3.76795 3.38551 3.68338 3.30088L1.4752 1.09272C1.13766 0.755246 0.590581 0.755246 0.253106 1.09272C-0.0843687 1.43022 -0.0843687 1.97735 0.253106 2.31482L2.46129 4.52296C2.8723 4.934 3.41873 5.16039 4 5.16039C4.58126 5.16039 5.12769 4.934 5.53873 4.523L7.74689 2.31483C8.08436 1.97736 8.08436 1.43021 7.74689 1.09273C7.40939 0.755246 6.8622 0.755246 6.52475 1.09272Z" fill="white"/>
</svg>
