<svg width="64" height="64" viewBox="0 0 64 64" fill="none" xmlns="http://www.w3.org/2000/svg">
<circle cx="32" cy="32" r="32" fill="#38CEA8"/>
<path d="M28.7773 37.2695C28.7773 35.4466 28.9987 33.9948 29.4414 32.9141C29.8841 31.8333 30.6914 30.7721 31.8633 29.7305C33.0482 28.6758 33.8359 27.8229 34.2266 27.1719C34.6172 26.5078 34.8125 25.8112 34.8125 25.082C34.8125 22.8815 33.7969 21.7812 31.7656 21.7812C30.8021 21.7812 30.0273 22.0807 29.4414 22.6797C28.8685 23.2656 28.569 24.0794 28.543 25.1211H22.8789C22.9049 22.6341 23.7057 20.6875 25.2812 19.2812C26.8698 17.875 29.0312 17.1719 31.7656 17.1719C34.526 17.1719 36.668 17.8424 38.1914 19.1836C39.7148 20.5117 40.4766 22.3932 40.4766 24.8281C40.4766 25.9349 40.2292 26.9831 39.7344 27.9727C39.2396 28.9492 38.3737 30.0365 37.1367 31.2344L35.5547 32.7383C34.5651 33.6888 33.9987 34.8021 33.8555 36.0781L33.7773 37.2695H28.7773ZM28.2109 43.2656C28.2109 42.3932 28.5039 41.6771 29.0898 41.1172C29.6888 40.5443 30.4505 40.2578 31.375 40.2578C32.2995 40.2578 33.0547 40.5443 33.6406 41.1172C34.2396 41.6771 34.5391 42.3932 34.5391 43.2656C34.5391 44.125 34.2461 44.8346 33.6602 45.3945C33.0872 45.9544 32.3255 46.2344 31.375 46.2344C30.4245 46.2344 29.6562 45.9544 29.0703 45.3945C28.4974 44.8346 28.2109 44.125 28.2109 43.2656Z" fill="white"/>
</svg>
